<svg xmlns="http://www.w3.org/2000/svg" width="1200" height="630" viewBox="0 0 1200 630" role="img" aria-labelledby="title desc">
<title id="title">Shrinklet by Jungle Pixels</title>
<desc id="desc">Private Mac compression for PDFs, images, videos, and audio.</desc>
<defs><linearGradient id="g" x1="0" y1="0" x2="1" y2="1"><stop offset="0" stop-color="#ff4f66"/><stop offset="0.55" stop-color="#ff7043"/><stop offset="1" stop-color="#7c3aed"/></linearGradient><filter id="s" x="-20%" y="-20%" width="140%" height="140%"><feDropShadow dx="0" dy="28" stdDeviation="24" flood-opacity=".28"/></filter></defs>
<rect width="1200" height="630" fill="#fff7f8"/>
<circle cx="1010" cy="80" r="220" fill="#fff0d8"/><circle cx="100" cy="560" r="240" fill="#ffe5eb"/>
<rect x="76" y="78" width="1048" height="474" rx="56" fill="white" filter="url(#s)"/>
<rect x="124" y="126" width="144" height="144" rx="36" fill="url(#g)"/>
<path d="M186 162h60v28h-60c-18 0-28 8-28 22s10 22 28 22h16c38 0 66 24 66 60s-30 66-76 66h-64v-30h64c25 0 40-13 40-34 0-20-15-32-40-32h-15c-34 0-57-21-57-52s25-50 66-50z" fill="white"/>
<text x="320" y="184" font-family="Inter, -apple-system, BlinkMacSystemFont, Segoe UI, sans-serif" font-size="88" font-weight="900" fill="#20151c">Shrinklet</text>
<text x="320" y="244" font-family="Inter, -apple-system, BlinkMacSystemFont, Segoe UI, sans-serif" font-size="38" font-weight="800" fill="#f43f5e">PDF, image, video &amp; audio compressor for Mac</text>
<text x="124" y="370" font-family="Inter, -apple-system, BlinkMacSystemFont, Segoe UI, sans-serif" font-size="42" font-weight="850" fill="#20151c">Compress files privately on your Mac.</text>
<text x="124" y="430" font-family="Inter, -apple-system, BlinkMacSystemFont, Segoe UI, sans-serif" font-size="30" font-weight="650" fill="#6f6870">Batch workflows • Presets • Review before sharing • Local processing</text>
</svg>